<?xml version="1.0" encoding="utf-8"?>
<!-- Generator: Adobe Illustrator 21.1.0, SVG Export Plug-In . SVG Version: 6.00 Build 0)  -->
<svg version="1.1" id="Layer_1" xmlns="http://www.w3.org/2000/svg" xmlns:xlink="http://www.w3.org/1999/xlink" x="0px" y="0px"
	 viewBox="0 0 125 125" style="enable-background:new 0 0 125 125;" xml:space="preserve">
<path d="M66.5,69.3h-8c-0.6,0-1,0.4-1,1s0.4,1,1,1h8c0.6,0,1-0.4,1-1S67.1,69.3,66.5,69.3z M64.7,72.6h-4.5c-0.6,0-1,0.4-1,1
	s0.4,1,1,1h4.5c0.6,0,1-0.4,1-1S65.3,72.6,64.7,72.6z M71.1,67.4c-3.3-0.1-5.7-1.1-6.2-1.5c-0.4-0.3-1.1-0.2-1.4,0.2
	c-0.3,0.4-0.2,1.1,0.2,1.4c1,0.7,3.9,1.8,7.3,1.9h0c0.5,0,1-0.4,1-1C72.1,67.9,71.7,67.4,71.1,67.4z M76.2,82.4h-4v-2.7
	c5.7-3.7,10.7-9.9,10.7-15.5v-1.4h0.6c3.3,0,4.9-2.7,5.1-8.3c2.1-1.2,3.2-2.6,3.2-4.1v-2.8c0-2.4-2.8-4.3-7-5.6
	C81.5,30.7,78,24.7,74.1,23.1C71,22,68.2,23.7,66,25c-1.3,0.8-2.5,1.6-3.5,1.6c0,0,0,0,0,0c-1,0-2.2-0.8-3.5-1.6
	c-2.2-1.4-5-3-8.1-1.9c-4,1.5-7.4,7.5-10.8,18.8c-4.3,1.4-7,3.3-7,5.6v2.8c0,1.5,1.1,2.9,3.2,4.1c0.2,5.7,1.9,8.3,5.1,8.3h0.6v1.4
	c0,5.6,5,11.7,10.7,15.5v2.7h-4c-10.4,0-18.9,8.5-18.9,18.9c0,0.6,0.4,1,1,1h63.2c0.3,0,0.5-0.1,0.7-0.3c0.2-0.2,0.3-0.4,0.3-0.7
	C95.1,90.8,86.6,82.4,76.2,82.4z M83.5,60.8h-0.6v-6.4h0.4c0.3,0,0.4,0,0.4,0.4c0,0.2,0,0.6,0,0.6c0,0.5,0.4,1,0.9,1.1
	c0,0,0.1,0,0.1,0c0.5,0,1-0.4,1-0.9c0,0,0-0.4,0-0.7c0-1.4-1-2.4-2.4-2.4h-0.4v-1.1h1.9c1,0,1.9,0.8,1.9,1.9
	C86.7,60.8,84.4,60.8,83.5,60.8z M88.5,52.2c-0.4-1.7-1.9-2.9-3.7-2.9h-1.9v-3.1c4.5,1.3,7,2.8,7,4.2C89.9,51,89.4,51.6,88.5,52.2z
	 M51.7,25c2.2-0.8,4.3,0.5,6.3,1.7c1.5,0.9,3,1.8,4.5,1.8c0,0,0,0,0,0c1.5,0,3-0.9,4.5-1.8c2-1.2,4.1-2.5,6.3-1.7
	c2.5,0.9,4.9,4.5,7.3,10.7C75.5,34.6,69.2,34,62.5,34c-6.7,0-13,0.6-18.1,1.7C46.8,29.5,49.2,26,51.7,25z M43.6,37.9
	c5.2-1.3,11.9-2,18.9-2c7.1,0,13.8,0.7,18.9,2c0.4,1.1,0.8,2.2,1.1,3.4c-5.6-1.4-12.9-2.2-20.1-2.2S48,39.9,42.4,41.3
	C42.8,40.1,43.2,39,43.6,37.9z M62.5,41.1c15.8,0,25.9,3.3,27.2,5.9c-4.7-3.4-16.2-5.1-27.2-5.1s-22.6,1.8-27.2,5.1
	C36.6,44.4,46.7,41.1,62.5,41.1z M42.1,52.4h-0.4c-1.4,0-2.4,1-2.4,2.4c0,0.3,0,0.7,0,0.7c0,0.5,0.5,0.9,1,0.9c0,0,0.1,0,0.1,0
	c0.6,0,1-0.5,0.9-1.1c0,0,0-0.4,0-0.6c0-0.4,0.1-0.4,0.4-0.4h0.4v6.4h-0.6c-0.9,0-3.2,0-3.2-7.6c0-1,0.8-1.9,1.9-1.9h1.9V52.4z
	 M42.1,49.3h-1.9c-1.8,0-3.3,1.2-3.7,2.9c-0.9-0.6-1.4-1.3-1.4-1.8c0-1.3,2.5-2.9,7-4.2L42.1,49.3L42.1,49.3z M44.1,64.2V45.7
	c4.6-1.1,10.9-1.8,18.4-1.8c7.6,0,13.8,0.8,18.4,1.8v18.5c0,5-4.8,10.7-10.2,14.1c0,0,0,0-0.1,0c-0.1,0.1-0.2,0.1-0.3,0.2
	c-1.1,0.7-2.3,1.3-3.4,1.7v-1.1c0-0.6-0.4-1-1-1c-0.6,0-1,0.4-1,1v1.8c-0.5,0.1-1,0.2-1.5,0.3v-3.5c0-0.6-0.4-1-1-1s-1,0.4-1,1v3.5
	c-0.5-0.1-1-0.1-1.5-0.3v-1.8c0-0.6-0.4-1-1-1s-1,0.4-1,1v1.1c-1.1-0.4-2.3-1-3.4-1.7c-0.1-0.1-0.2-0.1-0.3-0.2c0,0-0.1,0-0.1,0
	C48.9,74.9,44.1,69.2,44.1,64.2z M70.2,81.1v2.3c0,3.8-2.9,7-6.7,7.5v-0.6C63.5,88,66.6,83.8,70.2,81.1z M42.1,100.3
	c0.2-1.9,0.8-3.6,1.8-5.2c0.3-0.5,0.2-1.1-0.3-1.4c-0.5-0.3-1.1-0.2-1.4,0.3c-1.3,1.9-2,4.1-2.2,6.3h-8.2
	c0.5-8.1,6.7-14.7,14.6-15.7c-0.7,4.1-0.4,8.2-0.4,8.4c0,0.3,0.2,0.6,0.5,0.8l1.1,0.6l-1.4,1.1c-0.3,0.2-0.5,0.6-0.4,1
	c0,0.1,0.5,1.8,2.1,3.8L42.1,100.3L42.1,100.3z M50.8,100.3c-1.6-1.4-2.4-2.9-2.7-3.7l2.1-1.5c0.3-0.2,0.4-0.5,0.4-0.9
	s-0.2-0.6-0.5-0.8l-1.9-1.1c-0.1-1.3-0.1-4.7,0.5-7.9c0.1,0,0.1,0,0.2,0H50c0.4,8.2,5.6,13.4,9,15.9L50.8,100.3L50.8,100.3z
	 M61.5,99.6c-2.9-1.8-9-6.5-9.5-15.2h0.8c0.5,4.5,4.1,8.1,8.7,8.5L61.5,99.6L61.5,99.6z M61.5,90.9c-3.8-0.5-6.7-3.7-6.7-7.5v-2.3
	c3.6,2.8,6.7,6.9,6.7,9.3V90.9z M59.6,82.8c1,0.2,2,0.4,2.9,0.4c0.9,0,1.9-0.1,2.9-0.4c-1.2,1.3-2.2,2.7-2.9,4.1
	C61.8,85.5,60.8,84.1,59.6,82.8z M63.5,92.9c4.6-0.5,8.2-4,8.7-8.5H73c-0.5,8.6-6.6,13.4-9.5,15.2L63.5,92.9L63.5,92.9z M73.8,100.3
	H66c3.4-2.5,8.6-7.7,9-15.9H76c0.6,3.2,0.5,6.6,0.5,7.9l-1.9,1.1c-0.3,0.2-0.5,0.5-0.5,0.8s0.1,0.7,0.4,0.9l2.1,1.5
	C76.2,97.4,75.4,98.8,73.8,100.3z M84.9,100.3c-0.2-2.3-0.9-4.4-2.2-6.3c-0.3-0.5-0.9-0.6-1.4-0.3c-0.5,0.3-0.6,0.9-0.3,1.4
	c1,1.6,1.7,3.3,1.8,5.2h-6.3c1.6-2,2.1-3.7,2.1-3.8c0.1-0.4-0.1-0.8-0.4-1l-1.4-1.1l1.1-0.6c0.3-0.2,0.5-0.5,0.5-0.8
	c0-0.2,0.3-4.3-0.4-8.5c8.1,0.9,14.5,7.6,15,15.8C93.1,100.3,84.9,100.3,84.9,100.3z M57.5,46.1c-0.1-0.5-0.7-0.9-1.2-0.7l-8.6,2.1
	c-0.5,0.1-0.9,0.7-0.7,1.2c0.1,0.5,0.5,0.8,1,0.8c0.1,0,0.2,0,0.2,0l8.6-2.1C57.3,47.2,57.6,46.6,57.5,46.1z M56.7,60.1
	c-0.6,0.6-0.9,1.3-0.9,2.1c0,0.8,0.3,1.5,0.9,2.1c0.2,0.2,0.5,0.3,0.7,0.3s0.5-0.1,0.7-0.3c0.4-0.4,0.4-1,0-1.4
	c-0.2-0.2-0.3-0.4-0.3-0.7s0.1-0.5,0.3-0.7c0.4-0.4,0.4-1,0-1.4C57.8,59.7,57.1,59.7,56.7,60.1z M54.5,52.6c0-1.3-1-2.3-2.3-2.3
	s-2.3,1-2.3,2.3c0,1.3,1,2.3,2.3,2.3S54.5,53.8,54.5,52.6z M72.8,54.8c1.3,0,2.3-1,2.3-2.3c0-1.3-1-2.3-2.3-2.3
	c-1.3,0-2.3,1-2.3,2.3C70.5,53.8,71.5,54.8,72.8,54.8z M61.4,66.1c-0.3-0.4-1-0.5-1.4-0.2c-0.5,0.4-2.9,1.4-6.2,1.5
	c-0.6,0-1,0.5-1,1c0,0.5,0.5,1,1,1h0c3.4-0.1,6.4-1.2,7.3-1.9C61.7,67.2,61.8,66.6,61.4,66.1z M66.8,64.3c0.2,0.2,0.5,0.3,0.7,0.3
	c0.3,0,0.5-0.1,0.7-0.3c0.6-0.6,0.9-1.3,0.9-2.1c0-0.8-0.3-1.5-0.9-2.1c-0.4-0.4-1-0.4-1.4,0c-0.4,0.4-0.4,1,0,1.4
	c0.2,0.2,0.3,0.4,0.3,0.7s-0.1,0.5-0.3,0.7C66.5,63.3,66.5,63.9,66.8,64.3z M66.8,52.5c0,3.3,2.7,6,6,6c1.5,0,2.9-0.6,4-1.5v8.6
	c0,0.6,0.4,1,1,1c0.6,0,1-0.4,1-1V52.5c0-1.2-0.4-2.4-1-3.3c0.2-0.1,0.3-0.3,0.3-0.5c0.1-0.5-0.2-1.1-0.7-1.2l-8.6-2.1
	c-0.5-0.1-1.1,0.2-1.2,0.7c-0.1,0.5,0.2,1.1,0.7,1.2l1.2,0.3C67.8,48.7,66.8,50.5,66.8,52.5z M72.8,48.5c2.2,0,4,1.8,4,4
	c0,2.2-1.8,4-4,4s-4-1.8-4-4C68.8,50.3,70.6,48.5,72.8,48.5z M64.2,59.9c0.6,0,1-0.4,1-1V50c0-0.6-0.4-1-1-1s-1,0.4-1,1v8.9
	C63.2,59.5,63.7,59.9,64.2,59.9z M62.5,64.6c1.3,0,2.5-0.5,3.5-1.4c0.4-0.4,0.4-1,0-1.4c-0.4-0.4-1-0.4-1.4,0c-1.1,1.1-3,1.1-4.1,0
	c-0.4-0.4-1-0.4-1.4,0s-0.4,1,0,1.4C60,64.1,61.2,64.6,62.5,64.6z M66,93.9c-0.6,0-1,0.4-1,1s0.4,1,1,1c0.6,0,1-0.4,1-1
	S66.5,93.9,66,93.9z"/>
</svg>
