<?xml version="1.0" encoding="utf-8"?>
<!-- Generator: Adobe Illustrator 21.1.0, SVG Export Plug-In . SVG Version: 6.00 Build 0)  -->
<svg version="1.1" id="Layer_1" xmlns="http://www.w3.org/2000/svg" xmlns:xlink="http://www.w3.org/1999/xlink" x="0px" y="0px"
	 viewBox="0 0 110 110" style="enable-background:new 0 0 110 110;" xml:space="preserve">
<path d="M59,61.8h-8c-0.6,0-1,0.4-1,1s0.4,1,1,1h8c0.6,0,1-0.4,1-1S59.6,61.8,59,61.8z M57.2,65.1h-4.5c-0.6,0-1,0.4-1,1s0.4,1,1,1
	h4.5c0.6,0,1-0.4,1-1S57.8,65.1,57.2,65.1z M63.6,59.9c-3.3-0.1-5.7-1.1-6.2-1.5c-0.4-0.3-1.1-0.2-1.4,0.2c-0.3,0.4-0.2,1.1,0.2,1.4
	c1,0.7,3.9,1.8,7.3,1.9h0c0.5,0,1-0.4,1-1C64.6,60.4,64.2,59.9,63.6,59.9z M68.7,74.9h-4v-2.7c5.7-3.7,10.7-9.9,10.7-15.5v-1.4H76
	c3.3,0,4.9-2.7,5.1-8.3c2.1-1.2,3.2-2.6,3.2-4.1v-2.8c0-2.4-2.8-4.3-7-5.6C74,23.2,70.5,17.2,66.6,15.6c-3.1-1.2-5.8,0.5-8.1,1.9
	c-1.3,0.8-2.5,1.6-3.5,1.6c0,0,0,0,0,0c-1,0-2.2-0.8-3.5-1.6c-2.2-1.4-5-3-8.1-1.9c-4,1.5-7.4,7.5-10.8,18.8c-4.3,1.4-7,3.3-7,5.6
	v2.8c0,1.5,1.1,2.9,3.2,4.1c0.2,5.7,1.9,8.3,5.1,8.3h0.6v1.4c0,5.6,5,11.7,10.7,15.5v2.7h-4c-10.4,0-18.9,8.5-18.9,18.9
	c0,0.6,0.4,1,1,1h63.2c0.3,0,0.5-0.1,0.7-0.3c0.2-0.2,0.3-0.4,0.3-0.7C87.6,83.3,79.1,74.9,68.7,74.9z M76,53.3h-0.6v-6.4h0.4
	c0.3,0,0.4,0,0.4,0.4c0,0.2,0,0.6,0,0.6c0,0.5,0.4,1,0.9,1.1c0,0,0.1,0,0.1,0c0.5,0,1-0.4,1-0.9c0,0,0-0.4,0-0.7
	c0-1.4-1-2.4-2.4-2.4h-0.4v-1.1h1.9c1,0,1.9,0.8,1.9,1.9C79.2,53.3,76.9,53.3,76,53.3z M81,44.7c-0.4-1.7-1.9-2.9-3.7-2.9h-1.9v-3.1
	c4.5,1.3,7,2.8,7,4.2C82.4,43.5,81.9,44.1,81,44.7z M44.2,17.5c2.2-0.8,4.3,0.5,6.3,1.7c1.5,0.9,3,1.8,4.5,1.8c0,0,0,0,0,0
	c1.5,0,3-0.9,4.5-1.8c2-1.2,4.1-2.5,6.3-1.7c2.5,0.9,4.9,4.5,7.3,10.7C68,27.1,61.7,26.5,55,26.5c-6.7,0-13,0.6-18.1,1.7
	C39.3,22,41.7,18.5,44.2,17.5z M36.1,30.4c5.2-1.3,11.9-2,18.9-2c7.1,0,13.8,0.7,18.9,2c0.4,1.1,0.8,2.2,1.1,3.4
	c-5.6-1.4-12.9-2.2-20.1-2.2s-14.5,0.7-20.1,2.2C35.3,32.6,35.7,31.5,36.1,30.4z M55,33.6c15.8,0,25.9,3.3,27.2,5.9
	C77.6,36.2,66,34.4,55,34.4s-22.6,1.8-27.2,5.1C29.1,36.9,39.2,33.6,55,33.6z M34.6,44.9h-0.4c-1.4,0-2.4,1-2.4,2.4
	c0,0.3,0,0.7,0,0.7c0,0.5,0.5,0.9,1,0.9c0,0,0.1,0,0.1,0c0.6,0,1-0.5,0.9-1.1c0,0,0-0.4,0-0.6c0-0.4,0.1-0.4,0.4-0.4h0.4v6.4H34
	c-0.9,0-3.2,0-3.2-7.6c0-1,0.8-1.9,1.9-1.9h1.9V44.9z M34.6,41.8h-1.9c-1.8,0-3.3,1.2-3.7,2.9c-0.9-0.6-1.4-1.3-1.4-1.8
	c0-1.3,2.5-2.9,7-4.2L34.6,41.8L34.6,41.8z M36.6,56.7V38.2c4.6-1.1,10.9-1.8,18.4-1.8c7.6,0,13.8,0.8,18.4,1.8v18.5
	c0,5-4.8,10.7-10.2,14.1c0,0,0,0-0.1,0C63.1,70.9,63,71,62.9,71c-1.1,0.7-2.3,1.3-3.4,1.7v-1.1c0-0.6-0.4-1-1-1s-1,0.4-1,1v1.8
	c-0.5,0.1-1,0.2-1.5,0.3v-3.5c0-0.6-0.4-1-1-1s-1,0.4-1,1v3.5c-0.5-0.1-1-0.1-1.5-0.3v-1.8c0-0.6-0.4-1-1-1s-1,0.4-1,1v1.1
	c-1.1-0.4-2.3-1-3.4-1.7c-0.1-0.1-0.2-0.1-0.3-0.2c0,0-0.1,0-0.1,0C41.4,67.4,36.6,61.7,36.6,56.7z M62.7,73.6v2.3
	c0,3.8-2.9,7-6.7,7.5v-0.6C56,80.5,59.1,76.3,62.7,73.6z M34.6,92.8c0.2-1.9,0.8-3.6,1.8-5.2c0.3-0.5,0.2-1.1-0.3-1.4
	c-0.5-0.3-1.1-0.2-1.4,0.3c-1.3,1.9-2,4.1-2.2,6.3h-8.2C24.9,84.7,31.1,78.1,39,77c-0.7,4.1-0.4,8.2-0.4,8.4c0,0.3,0.2,0.6,0.5,0.8
	l1.1,0.6l-1.4,1.1c-0.3,0.2-0.5,0.6-0.4,1c0,0.1,0.5,1.8,2.1,3.8L34.6,92.8L34.6,92.8z M43.3,92.8c-1.6-1.4-2.4-2.9-2.7-3.7l2.1-1.5
	c0.3-0.2,0.4-0.5,0.4-0.9s-0.2-0.6-0.5-0.8l-1.9-1.1c-0.1-1.3-0.1-4.7,0.5-7.9c0.1,0,0.1,0,0.2,0h1.2c0.4,8.2,5.6,13.4,9,15.9
	L43.3,92.8L43.3,92.8z M54,92.1c-2.9-1.8-9-6.5-9.5-15.2h0.8c0.5,4.5,4.1,8.1,8.7,8.5L54,92.1L54,92.1z M54,83.4
	c-3.8-0.5-6.7-3.7-6.7-7.5v-2.3c3.6,2.8,6.7,6.9,6.7,9.3V83.4z M52.1,75.3c1,0.2,2,0.4,2.9,0.4c0.9,0,1.9-0.1,2.9-0.4
	c-1.2,1.3-2.2,2.7-2.9,4.1C54.3,78,53.3,76.6,52.1,75.3z M56,85.4c4.6-0.5,8.2-4,8.7-8.5h0.8C65,85.5,58.9,90.3,56,92.1L56,85.4
	L56,85.4z M66.3,92.8h-7.9c3.4-2.5,8.6-7.7,9-15.9h1.1c0.6,3.2,0.5,6.6,0.5,7.9l-1.9,1.1c-0.3,0.2-0.5,0.5-0.5,0.8s0.1,0.7,0.4,0.9
	l2.1,1.5C68.7,89.9,67.9,91.3,66.3,92.8z M77.4,92.8c-0.2-2.3-0.9-4.4-2.2-6.3c-0.3-0.5-0.9-0.6-1.4-0.3c-0.5,0.3-0.6,0.9-0.3,1.4
	c1,1.6,1.7,3.3,1.8,5.2h-6.3c1.6-2,2.1-3.7,2.1-3.8c0.1-0.4-0.1-0.8-0.4-1l-1.4-1.1l1.1-0.6c0.3-0.2,0.5-0.5,0.5-0.8
	c0-0.2,0.3-4.3-0.4-8.5c8.1,0.9,14.5,7.6,15,15.8C85.6,92.8,77.4,92.8,77.4,92.8z M50,38.6c-0.1-0.5-0.7-0.9-1.2-0.7l-8.6,2.1
	c-0.5,0.1-0.9,0.7-0.7,1.2c0.1,0.5,0.5,0.8,1,0.8c0.1,0,0.2,0,0.2,0l8.6-2.1C49.8,39.7,50.1,39.1,50,38.6z M49.2,52.6
	c-0.6,0.6-0.9,1.3-0.9,2.1c0,0.8,0.3,1.5,0.9,2.1c0.2,0.2,0.5,0.3,0.7,0.3s0.5-0.1,0.7-0.3c0.4-0.4,0.4-1,0-1.4
	c-0.2-0.2-0.3-0.4-0.3-0.7s0.1-0.5,0.3-0.7c0.4-0.4,0.4-1,0-1.4C50.3,52.2,49.6,52.2,49.2,52.6z M47,45.1c0-1.3-1-2.3-2.3-2.3
	s-2.3,1-2.3,2.3c0,1.3,1,2.3,2.3,2.3S47,46.3,47,45.1z M65.3,47.3c1.3,0,2.3-1,2.3-2.3c0-1.3-1-2.3-2.3-2.3c-1.3,0-2.3,1-2.3,2.3
	C63,46.3,64,47.3,65.3,47.3z M53.9,58.6c-0.3-0.4-1-0.5-1.4-0.2c-0.5,0.4-2.9,1.4-6.2,1.5c-0.6,0-1,0.5-1,1c0,0.5,0.5,1,1,1h0
	c3.4-0.1,6.4-1.2,7.3-1.9C54.2,59.7,54.3,59.1,53.9,58.6z M59.3,56.8c0.2,0.2,0.5,0.3,0.7,0.3c0.3,0,0.5-0.1,0.7-0.3
	c0.6-0.6,0.9-1.3,0.9-2.1c0-0.8-0.3-1.5-0.9-2.1c-0.4-0.4-1-0.4-1.4,0c-0.4,0.4-0.4,1,0,1.4c0.2,0.2,0.3,0.4,0.3,0.7
	s-0.1,0.5-0.3,0.7C59,55.8,59,56.4,59.3,56.8z M59.3,45c0,3.3,2.7,6,6,6c1.5,0,2.9-0.6,4-1.5v8.6c0,0.6,0.4,1,1,1c0.6,0,1-0.4,1-1
	V45c0-1.2-0.4-2.4-1-3.3c0.2-0.1,0.3-0.3,0.3-0.5c0.1-0.5-0.2-1.1-0.7-1.2l-8.6-2.1c-0.5-0.1-1.1,0.2-1.2,0.7
	c-0.1,0.5,0.2,1.1,0.7,1.2l1.2,0.3C60.3,41.2,59.3,43,59.3,45z M65.3,41c2.2,0,4,1.8,4,4c0,2.2-1.8,4-4,4s-4-1.8-4-4
	C61.3,42.8,63.1,41,65.3,41z M56.7,52.4c0.6,0,1-0.4,1-1v-8.9c0-0.6-0.4-1-1-1s-1,0.4-1,1v8.9C55.7,52,56.2,52.4,56.7,52.4z
	 M55,57.1c1.3,0,2.5-0.5,3.5-1.4c0.4-0.4,0.4-1,0-1.4c-0.4-0.4-1-0.4-1.4,0c-1.1,1.1-3,1.1-4.1,0c-0.4-0.4-1-0.4-1.4,0s-0.4,1,0,1.4
	C52.5,56.6,53.7,57.1,55,57.1z M58.5,86.4c-0.6,0-1,0.4-1,1s0.4,1,1,1c0.6,0,1-0.4,1-1S59,86.4,58.5,86.4z"/>
</svg>
